<?xml version="1.0" encoding="utf-8"?>
<svg viewBox="0 0 136 46" fill="none" xmlns="http://www.w3.org/2000/svg">
  <rect x="13.771" y="5" width="16.725" height="34.868" rx="2.516" style="fill: rgb(20, 165, 255);" ry="2.516"/>
  <rect y="15.791" width="15.741" height="14.113" rx="2" style="fill: rgb(0, 166, 255);"/>
  <path d="M 35.814 13.959 C 35.406 13.411 34.529 13.499 34.259 14.094 C 33.009 16.829 30.253 18.782 26.789 19.214 L 22.419 19.759 C 16.627 20.481 12.633 25.095 13.504 30.058 C 13.563 30.386 13.66 30.693 13.753 31.01 C 16.867 28.432 21.577 25.989 28.712 25.101 C 29.191 25.039 29.645 25.327 29.716 25.74 C 29.789 26.154 29.454 26.54 28.975 26.598 C 15.241 28.312 10.683 36.253 9.866 39.124 C 9.639 39.934 10.219 40.751 11.163 40.953 C 12.114 41.161 13.065 40.664 13.304 39.86 C 13.356 39.681 14.053 37.473 16.489 35.125 C 18.62 36.961 22.327 38.504 26.676 37.552 C 35.16 35.948 40.043 28.602 38.629 20.531 C 38.217 18.178 37.199 15.818 35.814 13.959 Z" fill="white"/>
  <path d="M 58.123 13.396 L 57.752 24.924 L 58.07 31.814 L 54.36 31.814 L 54.678 25.374 L 54.625 23.97 L 47.497 23.97 L 47.47 24.924 L 47.788 31.814 L 44.078 31.814 L 44.396 25.374 L 44.078 14.059 L 47.841 13.396 L 47.576 21.161 L 54.546 21.161 L 54.36 14.059 Z" transform="matrix(0.983727, 0, 0, 0.830168, 0, 3.339472)" style="fill: rgb(255, 255, 255); line-height: 40.4737px; white-space: pre;"/>
  <path d="M 63.629 31.814 Q 62.066 31.814 61.072 30.82 Q 60.078 29.826 60.078 28.144 Q 60.078 26.461 61.615 25.229 Q 63.152 23.996 65.352 23.996 L 67.154 23.996 L 67.154 23.546 Q 67.154 22.247 66.624 21.77 Q 66.094 21.293 64.636 21.293 Q 64.027 21.293 63.192 21.545 Q 62.357 21.797 61.324 22.327 L 60.555 20.233 Q 61.695 19.438 63.325 18.802 Q 64.954 18.166 66.014 18.166 Q 70.175 18.166 70.175 22.194 L 70.175 27.388 Q 70.175 28.872 71.103 30.701 L 68.294 31.894 Q 67.631 30.621 67.313 29.614 Q 65.855 31.814 63.629 31.814 Z M 64.742 29.111 Q 65.802 29.111 67.154 28.024 L 67.154 26.249 Q 65.749 25.931 64.875 25.931 Q 63.205 25.931 63.205 27.415 Q 63.205 28.183 63.629 28.647 Q 64.053 29.111 64.742 29.111 Z" transform="matrix(0.983727, 0, 0, 0.830168, 0, 3.339472)" style="fill: rgb(255, 255, 255); line-height: 40.4737px; white-space: pre;"/>
  <path d="M 76.232 11.302 L 75.887 24.924 L 76.179 31.151 L 72.601 31.814 L 72.919 25.374 L 72.601 11.965 Z" transform="matrix(0.983727, 0, 0, 0.830168, 0, 3.339472)" style="fill: rgb(255, 255, 255); line-height: 40.4737px; white-space: pre;"/>
  <path d="M 77.712 26.275 Q 77.712 22.883 79.54 20.525 Q 81.369 18.166 83.82 18.166 Q 86.271 18.166 87.636 19.756 Q 89.001 21.346 89.001 23.97 Q 89.001 27.468 87.239 29.787 Q 85.476 32.106 82.8 32.106 Q 80.6 32.106 79.156 30.449 Q 77.712 28.793 77.712 26.275 Z M 86.033 25.348 Q 86.033 21.505 83.409 21.505 Q 80.68 21.505 80.68 25.109 Q 80.68 26.991 81.448 28.051 Q 82.217 29.111 83.475 29.111 Q 84.734 29.111 85.383 28.144 Q 86.033 27.176 86.033 25.348 Z" transform="matrix(0.983727, 0, 0, 0.830168, 0, 3.339472)" style="fill: rgb(255, 255, 255); line-height: 40.4737px; white-space: pre;"/>
  <path d="M 101.839 18.431 Q 103.535 18.431 104.688 19.915 Q 105.841 21.399 105.841 23.917 Q 105.841 27.441 104.025 29.628 Q 102.21 31.814 99.507 31.814 Q 98.951 31.814 98.262 31.734 L 98.394 36.796 L 94.763 37.459 L 95.108 25.374 L 95.134 25.374 Q 95.028 21.823 94.551 19.014 L 97.758 18.325 Q 97.917 19.73 98.023 21.108 Q 98.076 20.975 98.566 20.379 Q 99.057 19.783 100.011 19.107 Q 100.965 18.431 101.839 18.431 Z M 100.806 21.876 Q 99.401 21.876 98.076 22.645 L 98.076 24.924 L 98.182 28.713 Q 99.613 28.952 100.355 28.952 Q 102.899 28.952 102.899 25.414 Q 102.899 21.876 100.806 21.876 Z" transform="matrix(0.983727, 0, 0, 0.830168, 0, 3.339472)" style="fill: rgb(255, 255, 255); line-height: 40.4737px; white-space: pre;"/>
  <path d="M 110.866 11.302 L 110.521 24.924 L 110.813 31.151 L 107.235 31.814 L 107.553 25.374 L 107.235 11.965 Z" transform="matrix(0.983727, 0, 0, 0.830168, 0, 3.339472)" style="fill: rgb(255, 255, 255); line-height: 40.4737px; white-space: pre;"/>
  <path d="M 116.32 31.814 Q 114.889 31.814 114.002 30.873 Q 113.114 29.932 113.114 28.395 L 113.273 25.348 L 112.981 18.988 L 116.532 18.325 L 116.188 26.381 Q 116.188 27.521 116.599 28.051 Q 117.009 28.581 117.911 28.581 Q 118.812 28.581 120.402 27.68 L 120.402 26.09 L 120.11 19.12 L 123.688 18.458 L 123.37 25.083 L 123.396 27.256 Q 123.396 28.952 124.271 30.674 L 121.515 31.894 Q 120.64 30.171 120.455 29.137 Q 118.07 31.814 116.32 31.814 Z" transform="matrix(0.983727, 0, 0, 0.830168, 0, 3.339472)" style="fill: rgb(255, 255, 255); line-height: 40.4737px; white-space: pre;"/>
  <path d="M 129.863 29.349 Q 131.241 29.349 131.241 28.13 Q 131.241 27.706 130.644 27.335 Q 130.048 26.964 129.187 26.593 Q 128.325 26.222 127.464 25.759 Q 126.603 25.295 126.007 24.473 Q 125.41 23.652 125.41 22.592 Q 125.41 20.816 126.974 19.491 Q 128.537 18.166 130.578 18.166 Q 131.532 18.166 132.446 18.391 Q 133.361 18.617 134.209 19.094 L 132.433 22.327 Q 132.248 22.168 131.956 21.929 Q 131.665 21.691 130.856 21.306 Q 130.048 20.922 129.425 20.922 Q 128.803 20.922 128.471 21.2 Q 128.14 21.479 128.14 21.969 Q 128.14 22.459 129.054 22.95 Q 129.969 23.44 131.055 23.851 Q 132.142 24.261 133.056 25.202 Q 133.97 26.143 133.97 27.441 Q 133.97 29.296 132.446 30.701 Q 130.923 32.106 128.935 32.106 Q 127.663 32.106 126.563 31.549 Q 125.463 30.992 124.986 30.436 L 124.509 29.879 L 126.603 27.441 Q 126.762 27.653 127.053 27.971 Q 127.345 28.289 128.206 28.819 Q 129.068 29.349 129.863 29.349 Z" transform="matrix(0.983727, 0, 0, 0.830168, 0, 3.339472)" style="fill: rgb(255, 255, 255); line-height: 40.4737px; white-space: pre;"/>
</svg>